<svg width="80" height="80" viewBox="0 0 80 80" fill="none" xmlns="http://www.w3.org/2000/svg">
<circle cx="40" cy="41" r="35" fill="#BBA490"/>
<path fill-rule="evenodd" clip-rule="evenodd" d="M42.4097 18.3133H34.6988V23.6145H38.0723V26.0241H36.8732L35.6627 30.0593V35.9873C34.523 36.5287 33.735 37.6904 33.735 39.0362V46.747H22.6506C20.7875 46.747 19.2771 48.2574 19.2771 50.1205V61.6868H50.1205V39.0362C50.1205 37.6904 49.3326 36.5287 48.1928 35.9873V30.0593L46.9822 26.0241H45.7832V21.6867C45.7832 19.8236 44.2728 18.3133 42.4097 18.3133ZM45.5479 27.9518H38.3075L37.5904 30.3423V35.6627H46.2651V30.3423L45.5479 27.9518ZM43.8554 26.0241V21.6867C43.8554 20.8882 43.2082 20.241 42.4097 20.241H36.6265V21.6867H40V26.0241H43.8554ZM37.1085 37.5904H46.747C47.5455 37.5904 48.1928 38.2376 48.1928 39.0362V59.759H40V50.1205C40 48.2574 38.4897 46.747 36.6265 46.747H35.6627V39.0362C35.6627 38.2376 36.31 37.5904 37.1085 37.5904ZM22.6506 48.6747C21.8521 48.6747 21.2048 49.3219 21.2048 50.1205V50.6024H38.0723V50.1205C38.0723 49.3219 37.425 48.6747 36.6265 48.6747H22.6506ZM21.2048 59.759V52.5301H38.0723V59.759H21.2048Z" fill="white"/>
<path fill-rule="evenodd" clip-rule="evenodd" d="M55.4216 31.465C54.0284 31.8797 53.012 33.1706 53.012 34.6988V50.6024H52.0481V52.5301H55.4216V59.759H53.012V61.6868H59.759V59.759H57.3494V52.5301H60.7228V50.6024H59.759V34.6988C59.759 33.1706 58.7426 31.8797 57.3494 31.465V18.3133H55.4216V31.465ZM57.8313 45.7831V43.3735H56.3855V41.4458H57.8313V39.0362H56.3855V37.1084H57.8313V34.6988C57.8313 33.9003 57.1841 33.253 56.3855 33.253C55.5869 33.253 54.9397 33.9003 54.9397 34.6988V50.6024H57.8313V47.7109H56.3855V45.7831H57.8313Z" fill="white"/>
</svg>
