<svg width="80" height="80" viewBox="0 0 80 80" fill="none" xmlns="http://www.w3.org/2000/svg">
<circle cx="40" cy="41" r="35" fill="#BBA490"/>
<path fill-rule="evenodd" clip-rule="evenodd" d="M45.6761 14.6177L44.5242 17.9088C43.0346 22.165 42.7525 26.3758 43.5718 30.4496C43.5809 30.4948 43.5907 30.542 43.6008 30.5911L43.6011 30.5928C43.7447 31.2884 43.967 32.3664 43.5301 33.3591C42.934 34.7138 41.5789 35.6627 40 35.6627C37.8707 35.6627 36.1446 33.9366 36.1446 31.8073C36.1446 26.4029 38.4163 20.6676 42.9974 16.85L45.6761 14.6177ZM41.6828 20.9995C39.2815 24.155 38.0723 28.0599 38.0723 31.8073C38.0723 32.8719 38.9354 33.735 40 33.735C40.7872 33.735 41.4663 33.263 41.7657 32.5827C41.9381 32.1908 41.858 31.7046 41.682 30.8297C41.0342 27.6093 41.0236 24.3161 41.6828 20.9995Z" fill="white"/>
<path d="M22.1687 30.3615H32.9159C32.8209 30.8292 32.7711 31.3129 32.7711 31.8073C32.7711 35.7997 36.0076 39.0362 40 39.0362C43.9925 39.0362 47.2289 35.7997 47.2289 31.8073C47.2289 31.3129 47.1792 30.8292 47.0841 30.3615H57.8314V28.4338H46.5081C45.4434 28.4338 44.849 29.4778 45.0972 30.345C45.2299 30.8083 45.3012 31.2986 45.3012 31.8073C45.3012 34.735 42.9278 37.1085 40 37.1085C37.0723 37.1085 34.6988 34.735 34.6988 31.8073C34.6988 31.2986 34.7702 30.8083 34.9028 30.345C35.1511 29.4778 34.5567 28.4338 33.492 28.4338H22.1687V30.3615Z" fill="white"/>
<path d="M22.1687 57.8318V55.9041H57.8314V57.8318H22.1687Z" fill="white"/>
<path d="M22.1687 59.7595V61.6872H57.8314V59.7595H22.1687Z" fill="white"/>
<path d="M29.6385 48.4337C29.6385 49.0993 29.0991 49.6385 28.4337 49.6385C27.7683 49.6385 27.2289 49.0993 27.2289 48.4337C27.2289 47.7684 27.7683 47.229 28.4337 47.229C29.0991 47.229 29.6385 47.7684 29.6385 48.4337Z" fill="white"/>
<path d="M25.7831 52.2892C25.7831 52.9547 25.2437 53.494 24.5783 53.494C23.9129 53.494 23.3735 52.9547 23.3735 52.2892C23.3735 51.6236 23.9129 51.0843 24.5783 51.0843C25.2437 51.0843 25.7831 51.6236 25.7831 52.2892Z" fill="white"/>
<path d="M33.4939 52.2892C33.4939 52.9547 32.9545 53.494 32.2891 53.494C31.6237 53.494 31.0843 52.9547 31.0843 52.2892C31.0843 51.6236 31.6237 51.0843 32.2891 51.0843C32.9545 51.0843 33.4939 51.6236 33.4939 52.2892Z" fill="white"/>
<path d="M39.9999 53.494C40.6653 53.494 41.2047 52.9547 41.2047 52.2892C41.2047 51.6236 40.6653 51.0843 39.9999 51.0843C39.3345 51.0843 38.7951 51.6236 38.7951 52.2892C38.7951 52.9547 39.3345 53.494 39.9999 53.494Z" fill="white"/>
<path d="M48.9156 52.2892C48.9156 52.9547 48.3764 53.494 47.7108 53.494C47.0454 53.494 46.506 52.9547 46.506 52.2892C46.506 51.6236 47.0454 51.0843 47.7108 51.0843C48.3764 51.0843 48.9156 51.6236 48.9156 52.2892Z" fill="white"/>
<path d="M55.4216 53.494C56.0871 53.494 56.6264 52.9547 56.6264 52.2892C56.6264 51.6236 56.0871 51.0843 55.4216 51.0843C54.7561 51.0843 54.2168 51.6236 54.2168 52.2892C54.2168 52.9547 54.7561 53.494 55.4216 53.494Z" fill="white"/>
<path d="M36.1445 49.6385C36.8099 49.6385 37.3493 49.0993 37.3493 48.4337C37.3493 47.7684 36.8099 47.229 36.1445 47.229C35.4791 47.229 34.9397 47.7684 34.9397 48.4337C34.9397 49.0993 35.4791 49.6385 36.1445 49.6385Z" fill="white"/>
<path d="M45.0602 48.4337C45.0602 49.0993 44.5208 49.6385 43.8554 49.6385C43.19 49.6385 42.6506 49.0993 42.6506 48.4337C42.6506 47.7684 43.19 47.229 43.8554 47.229C44.5208 47.229 45.0602 47.7684 45.0602 48.4337Z" fill="white"/>
<path d="M51.5662 49.6385C52.2318 49.6385 52.771 49.0993 52.771 48.4337C52.771 47.7684 52.2318 47.229 51.5662 47.229C50.9007 47.229 50.3614 47.7684 50.3614 48.4337C50.3614 49.0993 50.9007 49.6385 51.5662 49.6385Z" fill="white"/>
<path d="M40.2001 43.3528L40.1417 43.3653C34.6982 44.521 29.0255 45.7254 22.1687 43.5833V41.5562C28.7777 43.7935 34.1682 42.6628 39.7997 41.4671L39.8582 41.4547C45.3017 40.299 50.9745 39.0946 57.8314 41.2367V43.2638C51.2222 41.0265 45.8317 42.1572 40.2001 43.3528Z" fill="white"/>
</svg>
