<svg width="70" height="70" viewBox="0 0 70 70" fill="none" xmlns="http://www.w3.org/2000/svg">
<circle cx="35" cy="35" r="35" fill="#BBA490"/>
<path fill-rule="evenodd" clip-rule="evenodd" d="M53.7 20.2654H49.75C49.6 19.8156 49.35 19.4158 49.05 19.066C48.6 18.5662 48 18.3163 47.4 18.1664C46.2 17.8665 44.8 18.0164 43.35 18.2663C42.4 18.4163 41.4 18.6661 40.4 18.8661C39.85 18.966 39.35 19.1159 38.8 19.2159C37.25 19.5657 35.8 19.8156 34.5 19.8156C33.25 19.8156 31.75 19.5657 30.2 19.2659C29.65 19.1659 29.1 19.016 28.5 18.916C27.5 18.7161 26.5 18.4662 25.6 18.3163C24.2 18.0664 22.75 17.9165 21.55 18.2163C20.95 18.3663 20.35 18.6162 19.9 19.1159C19.6 19.4658 19.35 19.8656 19.2 20.3154H15.25C12.35 20.2654 10 22.6144 10 25.5631C10 27.7621 11.25 29.7612 13.2 30.7108L14.55 31.4105C14.5 32.41 14.85 33.3596 15.4 34.2092C16.15 35.3087 17.4 36.2083 18.85 36.7581C20.3 37.3078 21.85 37.3578 23.1 37.008C24.4 36.6581 25.55 35.8585 26 34.5591C26.45 33.2596 26.1 31.9102 25.35 30.8107C24.6 29.7112 23.35 28.8116 21.9 28.2619C20.45 27.7121 18.9 27.6621 17.65 28.012C16.7 28.2619 15.85 28.7616 15.25 29.5113L14.05 28.9116C12.8 28.3118 12 27.0124 12 25.5631C12 23.7639 13.5 22.2645 15.3 22.2645H19.05C19.2 23.1142 19.55 23.8138 20.15 24.3636C20.95 25.1632 22.05 25.713 23.1 26.2128C23.25 26.3127 23.45 26.3627 23.6 26.4627C24.5 26.9125 25.35 27.3123 26.15 27.8121C27.05 28.4118 27.75 29.0615 28.15 29.9611C28.45 30.6608 28.6 31.5104 28.6 32.51C28.6 33.1097 28.6 33.7094 28.55 34.3591C28.55 34.759 28.5 35.1588 28.5 35.6086C28.45 37.7077 28.65 40.1566 30.95 41.6059C31 41.6559 31 41.6559 31.05 41.7059V53.0009C31.05 54.1004 31.95 55 33.05 55H36.05C37.15 55 38.05 54.1004 38.05 53.0009V41.7059C38.05 41.7059 38.1 41.6559 38.15 41.6059C40.45 40.1066 40.65 37.6577 40.6 35.6086C40.6 35.1588 40.55 34.759 40.55 34.3591C40.5 33.7594 40.5 33.1597 40.5 32.51C40.5 31.5104 40.65 30.6608 40.95 29.9611C41.35 29.0615 42.05 28.4118 42.95 27.8121C43.7 27.3123 44.6 26.9125 45.5 26.4627C45.65 26.3627 45.85 26.3127 46 26.2128C47.05 25.713 48.15 25.1632 48.95 24.3636C49.5 23.7639 49.9 23.0642 50.05 22.2645H53.8C55.6 22.2645 57.1 23.7639 57.1 25.5631C57.1 27.0124 56.3 28.3118 55 28.9616L53.75 29.5113C53.15 28.7616 52.3 28.2619 51.35 28.012C50.05 27.6621 48.55 27.7621 47.1 28.2619C45.65 28.8116 44.4 29.7112 43.65 30.8107C42.9 31.9102 42.55 33.2596 43 34.5591C43.45 35.8585 44.6 36.6581 45.9 37.008C47.2 37.3578 48.7 37.2579 50.15 36.7581C51.6 36.2083 52.85 35.3087 53.6 34.2092C54.2 33.3596 54.55 32.41 54.45 31.4105L55.8 30.7108C57.75 29.7112 59 27.7121 59 25.5631C59 22.6144 56.65 20.2654 53.7 20.2654ZM16.65 31.1606C16.85 30.6608 17.35 30.211 18.2 29.9611C19.05 29.7112 20.15 29.7612 21.25 30.161C22.4 30.5608 23.25 31.2605 23.75 31.9602C24.25 32.6599 24.35 33.3596 24.15 33.8594C23.95 34.3591 23.45 34.8089 22.6 35.0588C21.75 35.3087 20.65 35.2587 19.55 34.8589C18.4 34.4591 17.55 33.7594 17.05 33.0597C16.55 32.3101 16.45 31.6604 16.65 31.1606ZM47.45 22.9642C46.95 23.464 46.15 23.9138 45.1 24.4136C44.95 24.4636 44.8 24.5635 44.65 24.6135C43.75 25.0133 42.75 25.5131 41.85 26.1128C40.75 26.8125 39.75 27.7621 39.15 29.1115C38.7 30.161 38.55 31.3605 38.55 32.41C38.55 33.0597 38.55 33.8094 38.6 34.4591C38.6 34.8589 38.65 35.2088 38.65 35.5586C38.7 37.6077 38.45 39.0071 37.1 39.8567C36.55 40.2065 36.1 40.8563 36.1 41.6559V53.0009H33.1V41.7059C33.1 40.9062 32.65 40.2565 32.1 39.9067C30.75 39.0571 30.5 37.6577 30.55 35.6086C30.55 35.2587 30.55 34.9089 30.6 34.5091C30.65 33.8094 30.65 33.1097 30.65 32.46C30.65 31.3605 30.5 30.211 30.05 29.1615C29.45 27.8121 28.4 26.8625 27.35 26.1628C26.45 25.5631 25.45 25.1133 24.55 24.6635C24.4 24.5635 24.25 24.5135 24.1 24.4636C23.05 23.9638 22.25 23.514 21.75 23.0142C21.1 22.5144 20.9 22.0146 21.05 21.265C21.1 20.8652 21.25 20.6653 21.4 20.5153C21.55 20.3654 21.75 20.2654 22.1 20.1655C22.85 19.9656 23.9 20.0655 25.3 20.3154C26.15 20.4653 27.05 20.6652 28 20.8652C28.6 21.0151 29.15 21.1151 29.8 21.265C31.35 21.5649 33 21.8647 34.5 21.8147C36 21.8147 37.6 21.5149 39.2 21.165C39.8 21.0651 40.35 20.9151 40.9 20.8152C41.9 20.6153 42.8 20.3654 43.7 20.2155C45.1 19.9656 46.2 19.9156 46.9 20.0655C47.25 20.1655 47.45 20.2654 47.6 20.4154C47.75 20.5653 47.85 20.7652 47.95 21.165C48.1 22.0146 47.9 22.5144 47.45 22.9642ZM51.95 33.0597C51.45 33.7594 50.6 34.4591 49.45 34.8589C48.3 35.2587 47.2 35.3087 46.4 35.0588C45.55 34.8089 45.05 34.3591 44.85 33.8594C44.65 33.3596 44.75 32.6599 45.25 31.9602C45.75 31.2605 46.6 30.5608 47.75 30.161C48.9 29.7612 50 29.7112 50.8 29.9611C51.65 30.211 52.15 30.6608 52.35 31.1606C52.55 31.6604 52.45 32.3101 51.95 33.0597Z" fill="white"/>
</svg>
