<svg width="25" height="25" viewBox="0 0 25 25" fill="none" xmlns="http://www.w3.org/2000/svg">
<rect x="0.5" y="0.5" width="24" height="24" rx="12" stroke="#A0A4AC"/>
<path d="M17.9646 10.1988C17.9584 9.74375 17.8718 9.29322 17.7086 8.86737C17.5671 8.50817 17.351 8.18195 17.0741 7.90955C16.7971 7.63715 16.4655 7.42457 16.1003 7.28539C15.6729 7.12759 15.2214 7.04226 14.765 7.03305C14.1774 7.00721 13.9911 7 12.4994 7C11.0077 7 10.8165 7 10.2332 7.03305C9.77697 7.04233 9.32568 7.12766 8.89849 7.28539C8.53324 7.42448 8.20153 7.63702 7.92459 7.90943C7.64764 8.18184 7.43155 8.50811 7.29015 8.86737C7.12939 9.28743 7.04283 9.73143 7.03421 10.1802C7.00794 10.7588 7 10.942 7 12.4092C7 13.8765 7 14.0639 7.03421 14.6383C7.04337 15.0877 7.1295 15.5311 7.29015 15.9523C7.43179 16.3115 7.64804 16.6376 7.92508 16.9099C8.20212 17.1822 8.53386 17.3947 8.8991 17.5337C9.32512 17.6978 9.77649 17.7893 10.2338 17.8041C10.822 17.8299 11.0083 17.8377 12.5 17.8377C13.9917 17.8377 14.1829 17.8377 14.7662 17.8041C15.2226 17.7952 15.6741 17.7101 16.1015 17.5523C16.4666 17.413 16.7982 17.2003 17.0751 16.928C17.352 16.6556 17.5682 16.3295 17.7099 15.9703C17.8705 15.5498 17.9566 15.1064 17.9658 14.6563C17.9921 14.0783 18 13.8951 18 12.4273C17.9988 10.9601 17.9988 10.7738 17.9646 10.1988V10.1988ZM12.4957 15.1839C10.9356 15.1839 9.67181 13.9408 9.67181 12.4062C9.67181 10.8717 10.9356 9.62862 12.4957 9.62862C13.2447 9.62862 13.9629 9.92126 14.4925 10.4422C15.0221 10.9631 15.3196 11.6696 15.3196 12.4062C15.3196 13.1429 15.0221 13.8494 14.4925 14.3703C13.9629 14.8912 13.2447 15.1839 12.4957 15.1839V15.1839ZM15.432 10.1736C15.0674 10.1736 14.7735 9.88397 14.7735 9.52588C14.7735 9.44086 14.7906 9.35668 14.8236 9.27813C14.8567 9.19959 14.9052 9.12822 14.9663 9.0681C15.0274 9.00799 15.1 8.9603 15.1799 8.92777C15.2597 8.89523 15.3453 8.87849 15.4317 8.87849C15.5182 8.87849 15.6037 8.89523 15.6836 8.92777C15.7635 8.9603 15.836 9.00799 15.8971 9.0681C15.9582 9.12822 16.0067 9.19959 16.0398 9.27813C16.0729 9.35668 16.0899 9.44086 16.0899 9.52588C16.0899 9.88397 15.7955 10.1736 15.432 10.1736Z" fill="#A0A4AC"/>
<path d="M12.5 13.528C13.3284 13.528 14 12.8663 14 12.0501C14 11.2339 13.3284 10.5723 12.5 10.5723C11.6716 10.5723 11 11.2339 11 12.0501C11 12.8663 11.6716 13.528 12.5 13.528Z" fill="#A0A4AC"/>
</svg>
