<svg width="25" height="25" viewBox="0 0 25 25" fill="none" xmlns="http://www.w3.org/2000/svg">
<path d="M12.5 13.528C13.3284 13.528 14 12.8663 14 12.0501C14 11.2339 13.3284 10.5723 12.5 10.5723C11.6716 10.5723 11 11.2339 11 12.0501C11 12.8663 11.6716 13.528 12.5 13.528Z" fill="#999999"/>
<rect x="0.5" y="0.5" width="24" height="24" rx="12" stroke="#999999"/>
<path d="M17.9646 9.82991C17.9584 9.37485 17.8718 8.92433 17.7086 8.49847C17.5671 8.13927 17.351 7.81305 17.0741 7.54065C16.7971 7.26826 16.4655 7.05568 16.1003 6.9165C15.6729 6.75869 15.2214 6.67337 14.765 6.66415C14.1774 6.63831 13.9911 6.6311 12.4994 6.6311C11.0077 6.6311 10.8165 6.6311 10.2332 6.66415C9.77697 6.67343 9.32568 6.75876 8.89849 6.9165C8.53324 7.05558 8.20153 7.26813 7.92459 7.54054C7.64764 7.81294 7.43155 8.13921 7.29015 8.49847C7.12939 8.91853 7.04283 9.36253 7.03421 9.81128C7.00794 10.3899 7 10.5731 7 12.0404C7 13.5076 7 13.695 7.03421 14.2694C7.04337 14.7188 7.1295 15.1622 7.29015 15.5834C7.43179 15.9426 7.64804 16.2687 7.92508 16.541C8.20212 16.8133 8.53386 17.0258 8.8991 17.1648C9.32512 17.3289 9.77649 17.4204 10.2338 17.4352C10.822 17.461 11.0083 17.4688 12.5 17.4688C13.9917 17.4688 14.1829 17.4688 14.7662 17.4352C15.2226 17.4263 15.6741 17.3412 16.1015 17.1834C16.4666 17.0441 16.7982 16.8315 17.0751 16.5591C17.352 16.2867 17.5682 15.9606 17.7099 15.6015C17.8705 15.1809 17.9566 14.7375 17.9658 14.2874C17.9921 13.7094 18 13.5262 18 12.0584C17.9988 10.5912 17.9988 10.4049 17.9646 9.82991ZM12.4957 14.815C10.9356 14.815 9.67181 13.5719 9.67181 12.0373C9.67181 10.5028 10.9356 9.25972 12.4957 9.25972C13.2447 9.25972 13.9629 9.55236 14.4925 10.0733C15.0221 10.5942 15.3196 11.3007 15.3196 12.0373C15.3196 12.774 15.0221 13.4805 14.4925 14.0014C13.9629 14.5223 13.2447 14.815 12.4957 14.815ZM15.432 9.80467C15.0674 9.80467 14.7735 9.51507 14.7735 9.15698C14.7735 9.07196 14.7906 8.98778 14.8236 8.90924C14.8567 8.83069 14.9052 8.75932 14.9663 8.69921C15.0274 8.63909 15.1 8.5914 15.1799 8.55887C15.2597 8.52634 15.3453 8.50959 15.4317 8.50959C15.5182 8.50959 15.6037 8.52634 15.6836 8.55887C15.7635 8.5914 15.836 8.63909 15.8971 8.69921C15.9582 8.75932 16.0067 8.83069 16.0398 8.90924C16.0729 8.98778 16.0899 9.07196 16.0899 9.15698C16.0899 9.51507 15.7955 9.80467 15.432 9.80467Z" fill="#999999"/>
</svg>
