<svg width="70" height="70" viewBox="0 0 70 70" fill="none" xmlns="http://www.w3.org/2000/svg">
<circle cx="35" cy="35" r="35" fill="#BBA490"/>
<path fill-rule="evenodd" clip-rule="evenodd" d="M37.6205 11L47.4509 16.7415L46.2685 18.8133C45.6082 19.9702 44.3686 20.5779 43.1346 20.4778L42.0291 22.4145L43.6672 23.3712L41.4667 27.2271C47.4945 28.5869 52 34.0288 52 40.5363C52 45.5218 49.3551 49.8806 45.4105 52.2585H48.6892C50.5177 52.2585 52 53.758 52 55.6077V58H17V55.6077C17 53.758 18.4823 52.2585 20.3108 52.2585H33.4859L37.2555 45.7759C37.8503 44.7529 38.936 44.1247 40.1092 44.1247H41.1215C42.4431 44.1247 43.5839 44.9079 44.1146 46.0404C45.4829 44.618 46.3243 42.6764 46.3243 40.5363C46.3243 36.1762 42.8305 32.6417 38.5203 32.6417H38.3763L36.0312 36.7508C37.0121 37.7991 37.2423 39.4134 36.4924 40.7273L35.3099 42.7989L21.3833 34.6653L22.5658 32.5935C23.3157 31.2796 24.8128 30.6741 26.2006 31.0093L33.8368 17.6297L35.4754 18.5868L36.5806 16.6504C35.8774 15.6191 35.7776 14.229 36.4381 13.0718L37.6205 11ZM42.7113 18.3928L38.5769 15.9782C37.9129 15.5766 37.6884 14.7088 38.0765 14.0287L38.313 13.6143L44.8666 17.442L44.6301 17.8564C44.2423 18.5365 43.3867 18.7737 42.7113 18.3928ZM38.0598 17.8863L37.1139 19.5436L40.3908 21.4574L41.3366 19.8001L38.0598 17.8863ZM27.9076 31.8461L34.4613 35.6737L41.0829 24.0717L34.5292 20.2441L27.9076 31.8461ZM26.1391 33.0231C25.4609 32.6295 24.5953 32.865 24.2042 33.5504L23.9677 33.9648L34.6174 40.1848L34.8539 39.7704C35.2451 39.085 35.014 38.2089 34.338 37.8116L34.3346 37.8097L26.1425 33.0251L26.1391 33.0231ZM39.4436 30.7717L40.467 28.9786C45.9393 29.9147 50.1081 34.7335 50.1081 40.5363C50.1081 44.8242 47.8317 48.5763 44.4324 50.6203V48.3107C46.732 46.5189 48.2162 43.7032 48.2162 40.5363C48.2162 35.4343 44.3653 31.2421 39.4436 30.7717ZM42.5404 47.4739V52.2585H35.6808L38.8862 46.7462C39.1411 46.3079 39.6064 46.0385 40.1092 46.0385H41.1215C41.9051 46.0385 42.5404 46.6811 42.5404 47.4739ZM20.3108 54.1723H48.6892C49.4729 54.1723 50.1081 54.8149 50.1081 55.6077V56.0862H18.8919V55.6077C18.8919 54.8149 19.5271 54.1723 20.3108 54.1723Z" fill="white"/>
</svg>
