<svg width="78" height="78" viewBox="0 0 78 78" fill="none" xmlns="http://www.w3.org/2000/svg">
<circle cx="39" cy="40" r="35" fill="#BBA490"/>
<path fill-rule="evenodd" clip-rule="evenodd" d="M60.2391 22.8547C58.6791 21.2949 56.1502 21.2949 54.5907 22.8547L52.4312 25.0144L53.76 26.3434L50.4375 29.6659L51.4341 30.6627L38.5363 43.5606C41.4909 47.7092 43.229 52.7853 43.229 58.2651H41.3495C41.3495 53.3027 39.812 48.7021 37.1871 44.9098L34.4892 47.6077C33.6988 48.3981 32.6063 48.7021 31.5835 48.5198L30.8344 49.2687C29.7334 50.3701 27.9483 50.3701 26.8473 49.2687C25.7463 48.1678 25.7463 46.3829 26.8473 45.2819L27.5965 44.5328C27.4142 43.5099 27.7183 42.4174 28.5086 41.6271L31.2057 38.93C27.4146 36.3072 22.8156 34.7711 17.8555 34.7711V32.8916C23.3331 32.8916 28.4075 34.6283 32.5549 37.5808L45.4536 24.6821L46.4504 25.6789L49.773 22.3563L51.1019 23.6854L53.2619 21.5257C55.5554 19.2319 59.2745 19.2319 61.568 21.5257C63.8619 23.8194 63.8619 27.5383 61.568 29.832L52.7634 38.6368C51.2955 40.1048 51.2955 42.4849 52.7634 43.9529L59.2425 50.4317L57.9132 51.761L51.4345 45.2819C49.2322 43.0799 49.2322 39.5098 51.4345 37.3078L60.2391 28.503C61.7987 26.9433 61.7987 24.4145 60.2391 22.8547ZM48.776 30.6627L45.4536 27.3401L43.4601 29.3337L46.7826 32.6562L48.776 30.6627ZM49.1086 28.3369L51.1019 26.3434L49.773 25.0144L47.7793 27.0079L49.1086 28.3369ZM33.1602 46.2787C32.6097 46.8292 31.7172 46.8292 31.1667 46.2787L29.8377 44.9497C29.2871 44.3991 29.2871 43.5066 29.8377 42.9561L42.1311 30.6627L45.4536 33.9853L33.1602 46.2787ZM28.5086 46.2787L28.1763 46.6109C27.8093 46.9779 27.8093 47.5729 28.1763 47.9399C28.5433 48.3069 29.1383 48.3069 29.5054 47.9399L29.8376 47.6077L28.5086 46.2787Z" fill="white"/>
<path d="M25.5681 51.8813L22.279 55.1704L20.9499 53.8416L24.2391 50.5525L25.5681 51.8813Z" fill="white"/>
<path d="M19.4598 57.9897L20.8694 56.5801L19.5404 55.2513L18.1307 56.6609L19.4598 57.9897Z" fill="white"/>
</svg>
