<svg width="201" height="76" viewBox="0 0 201 76" fill="none" xmlns="http://www.w3.org/2000/svg">
<path d="M60.7322 58.7018C56.4113 63.8271 44.809 64.4678 32.4866 60.2233C24.405 57.4204 17.1235 52.9357 12.7227 47.9705" stroke="white" stroke-miterlimit="22.9256" stroke-linecap="round"/>
<path fill-rule="evenodd" clip-rule="evenodd" d="M57.1315 38.2802C57.1315 23.1442 44.9691 10.9714 29.9261 10.9714C14.8831 10.9714 2.64062 23.1442 2.64062 38.2802C2.64062 53.336 14.803 65.5088 29.9261 65.5088C45.0491 65.5088 57.1315 53.336 57.1315 38.2802ZM27.6856 13.9346C41.1283 12.7333 52.8906 22.6637 54.1709 36.1179C54.651 41.4835 53.3707 46.6089 50.7302 50.9335C50.0101 52.0547 49.2899 53.0958 48.4897 54.1369C48.2497 54.3771 48.0097 54.6975 47.7696 54.9377C47.7696 55.0178 47.6896 55.0178 47.6896 55.0979C43.7688 59.2623 38.2477 62.1453 32.0865 62.6258C18.6438 63.8271 6.80145 53.8165 5.60121 40.4425C4.40098 27.0684 14.3229 15.1358 27.6856 13.9346Z" fill="#BBA490"/>
<path fill-rule="evenodd" clip-rule="evenodd" d="M33.6871 28.5101C30.8866 28.7503 28.8061 31.2329 29.0462 34.0359C29.2862 36.8388 31.7667 38.921 34.5673 38.6808C37.3679 38.4405 39.4483 35.9579 39.2082 33.155C38.9682 30.352 36.4877 28.2698 33.6871 28.5101Z" fill="#BBA490"/>
<path fill-rule="evenodd" clip-rule="evenodd" d="M48.3292 54.6975C45.9287 56.139 41.6078 58.2212 37.127 58.2212V61.7449C41.0477 60.5437 45.5286 57.6606 48.3292 54.6975Z" fill="#E4D3C2"/>
<path fill-rule="evenodd" clip-rule="evenodd" d="M23.2041 47.6502C23.2842 48.4511 23.4442 49.2519 23.9243 49.8926C24.4844 50.6934 25.2845 51.254 26.1647 51.8146C28.6452 53.4163 31.5258 54.6176 34.3264 55.4184C37.2069 56.2993 40.3275 56.7799 43.3681 56.4595C45.1285 56.2193 46.4088 55.6587 47.849 54.7777C46.4088 55.6587 44.5684 55.6587 42.8881 55.4184C41.7678 55.2582 40.6476 54.9379 39.6074 54.6176C38.7272 54.2972 37.767 54.057 37.367 53.096C36.9669 51.9748 37.607 50.7735 38.2471 49.8125C38.8873 48.8515 39.8474 48.0507 40.8877 47.4901C40.6476 42.4448 36.1667 38.3605 31.2057 38.841C30.2455 38.9211 29.2853 39.1613 28.4052 39.5617C26.4848 40.4427 24.9645 41.8041 24.0043 43.7261C23.6042 44.7672 23.1241 46.2888 23.2041 47.6502Z" fill="#BBA490"/>
<path fill-rule="evenodd" clip-rule="evenodd" d="M23.845 49.492L23.2049 47.8102C23.2049 44.2064 25.3653 41.0832 28.4859 39.7217C27.2857 34.1158 22.0847 30.0315 16.3235 30.512C10.0823 31.0726 5.52137 36.5984 6.00146 42.845C6.08148 43.4857 6.16149 44.2064 6.32153 44.8471C8.64199 53.256 15.1233 59.4225 23.1249 61.7449V55.4182C23.685 55.6585 24.3251 55.8988 24.9652 56.0589C34.4871 59.2623 43.689 59.022 47.4497 55.3382C47.6097 55.178 47.7698 55.0178 47.9298 54.8577L47.8498 54.6975C43.929 57.5805 35.3673 55.8187 26.3255 51.5742C25.3653 50.9335 24.7252 50.2128 23.845 49.492Z" fill="#8F7A68"/>
<path fill-rule="evenodd" clip-rule="evenodd" d="M37.2077 58.2212C33.527 58.2212 29.3662 57.4203 25.0453 56.0589C24.4852 55.8987 23.8451 55.5784 23.0449 55.4182V61.9851C26.0055 62.786 29.0461 63.1063 32.0067 62.786C33.7671 62.6258 35.5274 62.3055 37.2077 61.7449V58.2212Z" fill="#BBA490"/>
<path fill-rule="evenodd" clip-rule="evenodd" d="M37.2871 52.1348C37.2871 52.6153 37.3671 53.0958 37.6872 53.4963C38.4073 54.3772 40.0077 54.7776 41.0479 55.0979C42.3281 55.4183 43.6884 55.6585 45.0487 55.5784C46.2489 55.5784 47.4491 55.3382 48.2493 54.4573C49.2095 53.3361 50.0897 52.1348 50.8098 50.8535C49.6096 48.0505 46.729 46.2887 43.6084 46.5289C42.6482 46.609 41.688 46.9293 40.8878 47.3298C39.7676 47.8903 38.8874 48.6912 38.1673 49.7323C37.7672 50.373 37.3671 51.2539 37.2871 52.1348Z" fill="#E4D3C2"/>
<path fill-rule="evenodd" clip-rule="evenodd" d="M19.6837 18.0991C16.323 18.4195 13.8425 21.3025 14.1626 24.666C14.4826 28.0296 17.3632 30.5122 20.7239 30.1918C24.0845 29.8715 26.565 26.9885 26.245 23.6249C25.9249 20.2614 22.9643 17.7788 19.6837 18.0991Z" fill="#8F7A68"/>
<path fill-rule="evenodd" clip-rule="evenodd" d="M46.3296 38.12C44.0891 38.2802 42.3288 40.2823 42.5688 42.6047C42.7289 44.8471 44.7292 46.6089 47.0497 46.3687C49.2902 46.2085 51.0505 44.2064 50.8105 41.884C50.6504 39.5615 48.57 37.8798 46.3296 38.12Z" fill="#E4D3C2"/>
<path d="M80.0164 32.2742C79.8564 34.3602 79.1362 35.9247 77.936 37.0546C76.7357 38.1845 75.1354 38.793 73.055 38.793C71.6147 38.793 70.4145 38.4453 69.2943 37.663C68.2541 36.9677 67.3739 35.9247 66.8138 34.534C66.2537 33.2303 65.9336 31.6657 65.9336 29.8405V28.0152C65.9336 26.19 66.2537 24.6255 66.8138 23.2348C67.3739 21.8441 68.2541 20.8011 69.3743 20.0188C70.4945 19.2366 71.7748 18.8889 73.215 18.8889C75.1354 18.8889 76.7357 19.4973 77.936 20.6273C79.1362 21.7572 79.8564 23.4086 80.0164 25.4946H76.9758C76.8158 24.1039 76.4957 23.1479 75.8556 22.5394C75.2955 21.931 74.4153 21.5833 73.215 21.5833C71.8548 21.5833 70.8146 22.1049 70.0944 23.1479C69.3743 24.1909 68.9742 25.7554 68.9742 27.8414V29.5797C68.9742 31.6657 69.2943 33.2303 70.0144 34.3602C70.7345 35.4901 71.6947 36.0116 73.055 36.0116C74.2553 36.0116 75.1354 35.7508 75.7755 35.1424C76.4157 34.534 76.7357 33.5779 76.8958 32.1872H80.0164V32.2742Z" fill="#BBA490"/>
<path d="M89.6988 38.5322H86.6582V19.3235H89.6988V38.5322Z" fill="#BBA490"/>
<path d="M101.222 19.3235L106.343 34.0994L111.464 19.3235H115.464V38.5322H112.424V32.1872L112.744 23.6693L107.543 38.4453H105.302L100.021 23.7563L100.341 32.1872V38.5322H97.3008V19.3235H101.222Z" fill="#BBA490"/>
<path d="M133.146 29.9274H125.865V35.9247H134.346V38.5322H122.744V19.3235H134.266V22.0179H125.865V27.3199H133.146V29.9274Z" fill="#BBA490"/>
<path d="M151.47 19.3237H154.511V38.5324H151.47V24.8864L143.628 38.5324H140.588V19.3237H143.628V33.0566L151.47 19.3237ZM151.55 14.4563C151.55 15.5862 151.23 16.4554 150.51 17.1507C149.79 17.8461 148.83 18.1937 147.629 18.1937C146.429 18.1937 145.469 17.8461 144.749 17.1507C144.029 16.4554 143.709 15.5862 143.709 14.4563H145.949C145.949 15.0647 146.109 15.4993 146.429 15.847C146.749 16.1946 147.149 16.3685 147.709 16.3685C148.269 16.3685 148.669 16.1946 148.99 15.847C149.31 15.4993 149.47 15.0647 149.47 14.4563H151.55Z" fill="#BBA490"/>
<path d="M175.956 38.5322H172.915V30.0143H164.994V38.5322H161.953V19.3235H164.994V27.3199H172.915V19.3235H175.956V38.5322Z" fill="#BBA490"/>
<path d="M193.479 34.0994H186.598L185.158 38.6191H181.957L188.678 19.4104H191.399L198.12 38.6191H194.92L193.479 34.0994ZM187.478 31.405H192.599L190.039 23.4086L187.478 31.405Z" fill="#BBA490"/>
<path d="M69.0547 54.4382H67.8544V59.3925H66.4941V48.4409H67.8544V53.3083H68.8946L72.4153 48.4409H74.0956L70.2549 53.7429L74.4157 59.3925H72.8154L69.0547 54.4382Z" fill="#BBA490"/>
<path d="M85.6968 54.2644C85.6968 55.3074 85.5368 56.2635 85.2167 57.0457C84.8966 57.828 84.4165 58.4364 83.7764 58.871C83.1363 59.3056 82.4161 59.4794 81.616 59.4794C80.8158 59.4794 80.0957 59.3056 79.5356 58.871C78.8954 58.4364 78.4153 57.828 78.0953 57.0457C77.7752 56.2635 77.6152 55.3074 77.5352 54.3513V53.569C77.5352 52.526 77.6952 51.5699 78.0153 50.7877C78.3353 50.0054 78.8154 49.397 79.4555 48.9624C80.0957 48.5278 80.8158 48.354 81.616 48.354C82.4161 48.354 83.1363 48.5278 83.7764 48.9624C84.4165 49.397 84.8966 50.0054 85.2167 50.7877C85.5368 51.5699 85.6968 52.526 85.6968 53.569V54.2644ZM84.3365 53.569C84.3365 52.2653 84.0965 51.3092 83.6164 50.5269C83.1363 49.8316 82.4961 49.4839 81.616 49.4839C80.7358 49.4839 80.0957 49.8316 79.6156 50.5269C79.1355 51.2223 78.8954 52.1784 78.8954 53.3952V54.1775C78.8954 55.4812 79.1355 56.4373 79.6156 57.1327C80.0957 57.828 80.8158 58.1757 81.616 58.1757C82.4961 58.1757 83.1363 57.828 83.6164 57.1327C84.0965 56.4373 84.3365 55.4812 84.3365 54.1775V53.569Z" fill="#BBA490"/>
<path d="M98.0193 59.3925H96.659V54.3513H91.538V59.3925H90.1777V48.4409H91.538V53.1344H96.659V48.4409H98.0193V59.3925Z" fill="#BBA490"/>
<path d="M110.422 55.9158C110.262 57.0457 109.942 58.0018 109.221 58.6102C108.581 59.2186 107.701 59.5663 106.581 59.5663C105.381 59.5663 104.421 59.1317 103.7 58.1756C102.98 57.2196 102.66 56.0027 102.66 54.4382V53.3952C102.66 52.3522 102.82 51.483 103.14 50.7008C103.46 49.9185 103.94 49.3101 104.581 48.8755C105.221 48.4409 105.941 48.2671 106.741 48.2671C107.781 48.2671 108.661 48.6148 109.301 49.2232C109.942 49.9185 110.342 50.7877 110.422 51.9176H109.061C108.981 51.0484 108.661 50.44 108.341 50.0054C107.941 49.5708 107.381 49.397 106.741 49.397C105.861 49.397 105.221 49.7447 104.741 50.44C104.26 51.1354 104.02 52.0914 104.02 53.3952V54.4382C104.02 55.655 104.26 56.6111 104.741 57.3065C105.221 58.0018 105.861 58.3495 106.661 58.3495C107.381 58.3495 107.941 58.1756 108.341 57.828C108.741 57.4803 108.981 56.785 109.141 55.9158H110.422Z" fill="#BBA490"/>
<path d="M118.264 54.7859L120.585 48.4409H122.105L118.504 57.5672C118.264 58.1757 118.024 58.5233 117.864 58.7841C117.624 59.0448 117.384 59.2187 117.144 59.3056C116.904 59.3925 116.504 59.4794 116.104 59.4794C115.704 59.4794 115.544 59.4794 115.384 59.3925L115.464 58.2626H116.104C116.584 58.2626 116.984 58.0018 117.224 57.4803L117.384 57.0457L117.624 56.3504L114.184 48.1802H115.704L118.264 54.7859Z" fill="#BBA490"/>
<path d="M133.546 48.4409V59.3925H132.186V49.5708H128.585L128.425 53.9167C128.345 55.3943 128.185 56.4373 128.025 57.2195C127.785 57.9149 127.545 58.5233 127.145 58.871C126.745 59.2186 126.185 59.3925 125.545 59.3925H125.145V58.1756H125.385C125.785 58.1756 126.185 58.0018 126.345 57.741C126.585 57.4803 126.745 57.0457 126.905 56.4373C127.065 55.8289 127.145 54.9597 127.145 53.7429L127.385 48.4409H133.546Z" fill="#BBA490"/>
<path d="M139.788 52.8737H142.269C143.309 52.8737 144.109 53.2214 144.749 53.7429C145.309 54.3513 145.629 55.1335 145.629 56.0896C145.629 57.0457 145.309 57.828 144.749 58.4364C144.189 59.0448 143.309 59.3056 142.269 59.3925H138.428V48.4409H139.788V52.8737ZM139.788 54.0905V58.2626H142.188C142.829 58.2626 143.389 58.0887 143.709 57.6541C144.109 57.3065 144.269 56.785 144.269 56.0896C144.269 55.4812 144.109 54.9597 143.709 54.612C143.389 54.2644 142.829 54.0905 142.188 54.0905H139.788Z" fill="#BBA490"/>
<path d="M155.152 49.5708H151.871V59.3925H150.511V49.5708H147.23V48.354H155.072V49.5708H155.152Z" fill="#BBA490"/>
<path d="M164.272 56.5242H160.031L159.071 59.3925H157.711L161.552 48.4409H162.752L166.593 59.3925H165.232L164.272 56.5242ZM160.431 55.3943H163.872L162.112 50.2662L160.431 55.3943Z" fill="#BBA490"/>
<path d="M170.514 48.4409H171.874V58.2626H176.835V48.4409H178.195V58.1756H179.235L179.075 62H177.875V59.3925H170.514V48.4409Z" fill="#BBA490"/>
<path d="M184.917 59.3925H183.557V48.4409H184.917V59.3925Z" fill="#BBA490"/>
<path d="M195.16 59.3925V55.1335H192.839L190.759 59.3925H189.318L191.639 54.6989C190.359 54.1774 189.718 53.1344 189.718 51.7438C189.718 50.7008 190.039 49.9185 190.679 49.3101C191.319 48.7017 192.199 48.4409 193.319 48.4409H196.52V59.3925H195.16ZM191.079 51.7438C191.079 52.4391 191.239 52.9606 191.639 53.3083C192.039 53.6559 192.519 53.9167 193.239 53.9167H195.16V49.5708H193.239C192.519 49.5708 191.959 49.7447 191.559 50.0923C191.239 50.5269 191.079 51.0484 191.079 51.7438Z" fill="#BBA490"/>
</svg>
