<svg width="70" height="70" viewBox="0 0 70 70" fill="none" xmlns="http://www.w3.org/2000/svg">
<circle cx="35" cy="35" r="35" fill="#BBA490"/>
<path fill-rule="evenodd" clip-rule="evenodd" d="M17.3505 29.6326V16.4699H19.1096V29.1827C22.4038 29.979 25.0595 31.184 27.3276 32.8581C29.6311 34.5584 31.4967 36.7145 33.2198 39.3376H35.782C37.5051 36.7144 39.3709 34.5583 41.6745 32.8581C43.9425 31.184 46.5986 29.979 49.8929 29.1827V16.4699H51.6519V29.6326C51.6902 29.6961 51.735 29.7721 51.7856 29.8598C51.9501 30.1441 52.1752 30.5527 52.4232 31.0586C52.9175 32.0668 53.5108 33.4788 53.8912 35.0743C54.6484 38.2515 54.5913 42.366 50.9224 45.3014C50.8573 45.3532 50.7926 45.4043 50.728 45.454L49.6655 53.7412L47.921 53.5178L48.7974 46.6796C47.7724 47.1936 46.764 47.4874 45.7754 47.6105C44.121 47.8168 42.5819 47.538 41.186 47.1035C40.1503 46.7812 39.1475 46.3555 38.2416 45.9711C37.9466 45.8462 37.6619 45.7253 37.3897 45.614C36.2285 45.1387 35.2989 44.8343 34.5009 44.8343C33.703 44.8343 32.7734 45.1387 31.6121 45.614C31.3399 45.7253 31.0551 45.8462 30.7601 45.9711C29.8543 46.3555 28.8515 46.7812 27.8158 47.1035C26.42 47.538 24.8807 47.8168 23.2264 47.6105C22.2378 47.4874 21.2298 47.1936 20.2046 46.6796L21.0812 53.5178L19.3365 53.7412L18.274 45.4544C18.2092 45.4043 18.1444 45.3532 18.0795 45.3014C14.4105 42.366 14.3537 38.2514 15.1109 35.0743C15.4912 33.4788 16.0848 32.0668 16.579 31.0586C16.8269 30.5527 17.052 30.1441 17.2165 29.8598C17.2672 29.7721 17.3123 29.6961 17.3505 29.6326ZM50.3445 30.8832C47.2227 31.6333 44.7785 32.7534 42.7191 34.2733C40.5227 35.8945 38.7222 38.0014 37.0007 40.6912L36.7413 41.0966H32.2606L32.0011 40.6912C30.2796 38.0014 28.4792 35.8944 26.2829 34.2733C24.2237 32.7534 21.7794 31.6333 18.6577 30.8832C18.5201 31.1268 18.3469 31.4484 18.1585 31.8328C17.7012 32.7657 17.163 34.0515 16.822 35.4821C16.1367 38.3573 16.2794 41.6086 19.1784 43.928C20.7128 45.1554 22.132 45.7015 23.444 45.8651C24.7657 46.03 26.04 45.8141 27.293 45.4241C28.2373 45.1299 29.1231 44.7543 30.0095 44.3783C30.3205 44.2464 30.6319 44.1144 30.9457 43.986C32.1008 43.5133 33.32 43.0753 34.5009 43.0753C35.6818 43.0753 36.901 43.5133 38.0561 43.986C38.37 44.1144 38.6812 44.2464 38.9923 44.3783C39.8788 44.7543 40.7645 45.1299 41.7088 45.4241C42.9618 45.8141 44.2363 46.03 45.5577 45.8651C46.87 45.7015 48.2891 45.1554 49.8234 43.928C52.7223 41.6086 52.8652 38.3573 52.1801 35.4821C51.8393 34.0515 51.301 32.7657 50.8436 31.8327C50.6554 31.4484 50.4822 31.1269 50.3445 30.8832Z" fill="white"/>
</svg>
