<svg width="70" height="70" viewBox="0 0 70 70" fill="none" xmlns="http://www.w3.org/2000/svg">
<circle cx="35" cy="35" r="35" fill="#BBA490"/>
<path fill-rule="evenodd" clip-rule="evenodd" d="M28.7593 12.1566C27.8595 12.1566 27.1483 12.798 26.9672 14.0658C26.852 14.8723 26.7287 17.8807 26.642 20.4717C26.5673 22.7018 27.2821 24.9077 28.3684 26.9949C32.5955 35.1173 31.2226 42.054 28.6748 48.8807C27.513 51.9936 29.4165 55.3428 32.6328 55.793C35.3597 56.1746 37.9059 54.2689 38.4067 51.5144C39.1874 47.2202 40.0616 43.4475 40.846 40.0628C41.3078 38.0697 41.7385 36.2111 42.1006 34.4597C42.8965 30.6101 43.385 27.1864 43.246 23.7123C41.7305 22.4397 39.2768 21.462 36.6445 20.9494C33.8519 20.4055 31.0669 20.4256 29.2641 21.0266L28.7002 19.3349C29.261 19.148 29.8811 19.0102 30.5424 18.9181V13.9398C30.5424 12.955 29.7441 12.1566 28.7593 12.1566ZM31.9678 12.3812C31.3894 11.1926 30.17 10.3735 28.7593 10.3735C26.7046 10.3735 25.4666 11.9611 25.202 13.8137C25.0692 14.7434 24.9444 17.8866 24.8599 20.4121C24.7713 23.0589 25.6201 25.5768 26.7866 27.8181C30.6759 35.2913 29.4745 41.6381 27.0043 48.257C25.4702 52.3676 27.9662 56.94 32.3856 57.5588C36.1051 58.0799 39.4975 55.4832 40.1611 51.8331C40.9381 47.5594 41.7878 43.8968 42.5629 40.555C43.0284 38.549 43.4666 36.6585 43.8469 34.8207C44.849 29.9725 45.4085 25.6236 44.8 20.957C44.7554 20.6147 44.6475 19.9665 44.5512 19.4035C44.3729 18.3627 43.6334 17.5122 42.6379 17.1805C42.3146 17.0726 41.9885 17.0487 41.6798 17.0942C41.5833 15.8284 40.5257 14.8313 39.2352 14.8313C38.9315 14.8313 38.6406 14.8866 38.3722 14.9875C37.9991 14.1096 37.1287 13.494 36.1147 13.494C35.811 13.494 35.5201 13.5492 35.2517 13.6502C34.8786 12.7723 34.0083 12.1566 32.9942 12.1566C32.6277 12.1566 32.2801 12.2371 31.9678 12.3812ZM32.3255 14.6084V18.7795C32.7631 18.7696 33.2103 18.7754 33.6629 18.7962V14.6084C33.6629 14.2392 33.3635 13.9398 32.9942 13.9398C32.6249 13.9398 32.3255 14.2392 32.3255 14.6084ZM35.446 18.9516C35.8929 19.0084 36.3398 19.0783 36.7834 19.1607V15.9458C36.7834 15.5765 36.484 15.2771 36.1147 15.2771C35.7454 15.2771 35.446 15.5765 35.446 15.9458V18.9516ZM38.5668 19.5644C39.0183 19.6856 39.4654 19.8208 39.9038 19.9697V17.2831C39.9038 16.9139 39.6045 16.6145 39.2352 16.6145C38.8659 16.6145 38.5666 16.9138 38.5665 17.283L38.5668 19.5644ZM41.687 20.6785C42.1674 20.9008 42.6272 21.1422 43.0592 21.4025C43.0503 21.3309 43.0413 21.2593 43.032 21.1876C42.9928 20.8877 42.8916 20.2769 42.7935 19.7046C42.7275 19.3188 42.4522 18.9981 42.0743 18.8721C41.8837 18.8086 41.687 18.9504 41.687 19.1512V20.6785Z" fill="white"/>
</svg>
