<svg width="70" height="70" viewBox="0 0 70 70" fill="none" xmlns="http://www.w3.org/2000/svg">
<circle cx="35" cy="35" r="35" fill="#BBA490"/>
<path fill-rule="evenodd" clip-rule="evenodd" d="M49.2819 16.3658C47.4206 14.5447 44.2608 14.5447 42.3996 16.3658C41.4906 17.2763 40.9711 18.4903 40.9711 19.7476C40.9711 21.005 41.4906 22.219 42.3996 23.1295C42.919 23.6498 43.3085 24.2135 43.6115 24.8205C43.6548 24.9505 43.6548 25.0806 43.6115 25.1673C43.5683 25.2974 43.4384 25.3841 43.3085 25.3841C42.616 25.5575 42.0533 26.0345 41.7936 26.6415H39.2397C37.5516 26.6415 36.2098 27.9855 36.2098 29.6765V38.0878C35.6471 38.0011 35.0843 37.9144 34.4784 37.9144C33.8724 37.9144 33.3097 37.9578 32.7469 38.0878V29.7198C32.7469 28.0289 31.4051 26.6848 29.717 26.6848H27.1632C26.9034 26.0778 26.3407 25.6009 25.6482 25.4275C25.5183 25.3841 25.3885 25.2974 25.3452 25.1673C25.3019 25.0372 25.3019 24.9072 25.3452 24.8205C25.6482 24.1701 26.081 23.6064 26.5572 23.1295C27.4661 22.219 27.9856 21.0484 27.9856 19.7476C27.9856 18.4469 27.4661 17.2763 26.5572 16.3658C24.6959 14.5447 21.5361 14.5447 19.6748 16.3658C16.6448 19.3574 15 23.3029 15 27.552C15 31.801 16.6448 35.7465 19.6748 38.7382C20.6271 39.6487 21.8824 40.1256 23.1376 40.1256C24.3929 40.1256 25.6482 39.6487 26.6004 38.7382C27.5094 37.8277 28.0289 36.657 28.0289 35.3563C28.0289 34.0989 27.5094 32.8849 26.6004 31.9744C26.081 31.4541 25.6915 30.8905 25.3885 30.2835C25.3452 30.1534 25.3452 30.0233 25.3885 29.9366C25.4317 29.8066 25.5616 29.7198 25.6915 29.7198C26.384 29.5464 26.9467 29.0695 27.2064 28.4625H29.717C30.4528 28.4625 31.0155 29.0261 31.0155 29.7632V38.6948C28.505 39.6921 26.687 41.8166 26.687 44.4614C26.687 47.1062 28.5483 49.274 31.0155 50.2713V52.2657C31.0155 53.2196 31.7947 54 32.7469 54H36.2098C37.162 54 37.9412 53.2196 37.9412 52.2657V50.2713C40.4084 49.2307 42.2697 47.0628 42.2697 44.4614C42.2697 41.8166 40.4517 39.6921 37.9412 38.6515V29.7198C37.9412 28.9828 38.5039 28.4191 39.2397 28.4191H41.7936C42.0533 29.0261 42.616 29.5031 43.3085 29.6765C43.4384 29.7198 43.5683 29.8066 43.6115 29.8933C43.6548 30.0233 43.6548 30.1534 43.6115 30.2401C43.3085 30.8905 42.8757 31.4541 42.3996 31.9311C41.4906 32.8849 40.9711 34.0989 40.9711 35.3563C40.9711 36.6137 41.4906 37.8277 42.3996 38.7382C43.3518 39.6487 44.6071 40.1256 45.8624 40.1256C47.1176 40.1256 48.3729 39.6487 49.3252 38.7382C52.3552 35.7465 54 31.801 54 27.552C53.9567 23.3029 52.3119 19.3574 49.2819 16.3658ZM25.2586 27.9855C24.6093 28.1156 24.0466 28.5492 23.7869 29.1562C23.4839 29.7632 23.4839 30.4569 23.7869 31.0639C24.1765 31.8877 24.6959 32.6248 25.3452 33.2318C25.9079 33.7954 26.2542 34.5759 26.2542 35.3563C26.2542 36.1801 25.9512 36.9172 25.3452 37.4808C24.0033 38.7815 21.9689 38.5648 20.8868 37.4808C18.2031 34.836 16.7314 31.3241 16.7314 27.552C16.7314 23.7799 18.2031 20.2679 20.8868 17.6231C21.4928 17.0161 22.3152 16.7126 23.1376 16.7126C23.96 16.7126 24.7825 17.0161 25.3885 17.6231C25.9512 18.1868 26.2542 18.9238 26.2542 19.7476C26.2542 20.5714 25.9512 21.3085 25.3452 21.8722C24.6959 22.5225 24.1765 23.2596 23.7869 24.04C23.4839 24.647 23.4839 25.3407 23.7869 25.9477C24.0899 26.5548 24.6093 26.9883 25.2586 27.1184C25.475 27.1618 25.6049 27.3352 25.6049 27.552C25.6049 27.7688 25.475 27.9422 25.2586 27.9855ZM40.5383 44.4614C40.5383 46.239 39.2397 47.93 37.162 48.7538C36.6426 48.9272 36.2098 49.4908 36.2098 50.1412V52.2657H32.7469V50.1412C32.7469 49.4908 32.3141 48.9705 31.7947 48.7538C29.717 47.93 28.4184 46.239 28.4184 44.4614C28.4184 41.99 30.9723 39.6921 34.4784 39.6921C37.9845 39.6921 40.5383 41.99 40.5383 44.4614ZM48.0699 37.4808C46.9878 38.5648 44.9534 38.7815 43.6115 37.4808C43.0055 36.9172 42.7026 36.1801 42.7026 35.3563C42.7026 34.5325 43.0055 33.7954 43.6115 33.2318C44.2608 32.5814 44.7802 31.8444 45.1698 31.0639C45.4728 30.4569 45.4728 29.7632 45.1698 29.1562C44.8668 28.5492 44.3474 28.1156 43.6981 27.9855C43.4817 27.9422 43.3518 27.7688 43.3518 27.552C43.3518 27.3352 43.4817 27.1618 43.6981 27.1184C44.3474 26.9883 44.9101 26.5548 45.1698 25.9477C45.4728 25.3407 45.4728 24.647 45.1698 24.04C44.7802 23.2162 44.2608 22.4792 43.6115 21.8722C43.0055 21.3085 42.7026 20.5714 42.7026 19.7476C42.7026 18.9238 43.0055 18.1868 43.6115 17.6231C44.2175 17.0161 45.04 16.7126 45.8191 16.7126C46.6415 16.7126 47.4639 17.0161 48.0266 17.6231C50.7536 20.2679 52.2253 23.7799 52.2253 27.552C52.2253 31.3241 50.7536 34.836 48.0699 37.4808Z" fill="white"/>
</svg>
