<svg width="70" height="70" viewBox="0 0 70 70" fill="none" xmlns="http://www.w3.org/2000/svg">
<circle cx="35" cy="35" r="35" fill="#BBA490"/>
<path d="M19 21.7831H25.6867V20H19V21.7831Z" fill="white"/>
<path d="M19 24.7831H22.5663V23H19V24.7831Z" fill="white"/>
<path d="M50.4578 21.7831H46V20H50.4578V21.7831Z" fill="white"/>
<path fill-rule="evenodd" clip-rule="evenodd" d="M40.2439 23.74L48.9975 32.8448L48.734 33.4009C46.559 37.9922 40.7035 41.5823 35.0008 41.5823C29.2981 41.5823 23.4426 37.9923 21.2674 33.4009L21.0039 32.8448L29.7577 23.74L30.3928 24.5295C31.1349 25.4521 32.9277 26.6113 35.0008 26.6113C37.0739 26.6113 38.8666 25.4521 39.6088 24.5295L40.2439 23.74ZM40.2994 26.3706C39.0991 27.4297 37.1785 28.3944 35.0008 28.3944C32.823 28.3944 30.9024 27.4297 29.7022 26.3706L23.1578 33.1772C25.2132 36.8435 30.1572 39.7992 35.0008 39.7992C39.8444 39.7992 44.7884 36.8435 46.8435 33.1772L40.2994 26.3706Z" fill="white"/>
<path fill-rule="evenodd" clip-rule="evenodd" d="M14.9395 19.2892C14.9395 17.5658 16.3365 16.1687 18.0599 16.1687H51.9395C53.6629 16.1687 55.0599 17.5658 55.0599 19.2892V42.9157C55.0599 44.6391 53.6629 46.0361 51.9395 46.0361H40.3491V47.8193H41.6864C43.4098 47.8193 44.8069 49.2164 44.8069 50.9398V54.0602H25.1925V50.9398C25.1925 49.2164 26.5895 47.8193 28.3129 47.8193H29.6503V46.0361H18.0599C16.3365 46.0361 14.9395 44.6391 14.9395 42.9157V19.2892ZM51.9395 44.253C52.6781 44.253 53.2768 43.6543 53.2768 42.9157V19.2892C53.2768 18.5505 52.6781 17.9518 51.9395 17.9518H18.0599C17.3213 17.9518 16.7226 18.5505 16.7226 19.2892V42.9157C16.7226 43.6543 17.3213 44.253 18.0599 44.253H51.9395ZM31.4334 46.0361V47.8193H38.566V46.0361H31.4334ZM28.3129 49.6024C27.5743 49.6024 26.9756 50.2011 26.9756 50.9398V52.2771H43.0238V50.9398C43.0238 50.2011 42.4251 49.6024 41.6864 49.6024H28.3129Z" fill="white"/>
</svg>
